<svg xmlns="http://www.w3.org/2000/svg" version="1.1" xmlns:xlink="http://www.w3.org/1999/xlink" xmlns:svgjs="http://svgjs.dev/svgjs" width="1500" height="606" viewBox="0 0 1500 606"><g transform="matrix(1,0,0,1,-0.9084522071641459,-1.3384774803547543)"><svg viewBox="0 0 396 160" data-background-color="#102e44" preserveAspectRatio="xMidYMid meet" height="606" width="1500" xmlns="http://www.w3.org/2000/svg" xmlns:xlink="http://www.w3.org/1999/xlink"><g id="tight-bounds" transform="matrix(1,0,0,1,0.24008861730862918,0.3534378439421886)"><svg viewBox="0 0 395.52 159.29316876190475" height="159.29316876190475" width="395.52"><g><svg viewBox="0 0 395.52 159.29316876190475" height="159.29316876190475" width="395.52"><g><svg viewBox="0 0 395.52 159.29316876190475" height="159.29316876190475" width="395.52"><g id="textblocktransform"><svg viewBox="0 0 395.52 159.29316876190475" height="159.29316876190475" width="395.52" id="textblock"><g><svg viewBox="0 0 395.52 159.29316876190475" height="159.29316876190475" width="395.52"><path d="M394.594 34.165C392.735 17.631 387.435 13.034 387.435 13.034 371.165-3.996 350.86-0.326 332.619 2.121 300.414 2.221 268.339 5.858 236.208 7.809 168.767 8.107 100.749 3.213 33.643 15.283 27.339 18.987-6.54 16.01 1.121 36.282 3.129 44.714 10.456 54.073 10.232 61.811 11.236 63.167 12.631 60.058 13.226 62.01 15.309 67.268 18.711 64.787 21.501 67.896 17.614 76.196 20.403 83.108 23.062 90.35 18.377 92.235 12.371 91.342 9.675 97.592 9.396 102.122 7.89 101.263 6.235 101.064 5.026 100.932 2.59 101.428 2.999 102.85 4.394 107.711-1.594 110.522 2.162 115.284-0.422 120.443 3.948 124.907 3.353 130.496 3.278 131.62 3.687 132.579 4.338 132.844 7.22 134.266 3.018 137.043 3.464 140.053 33.029 160.622 65.104 146.402 95.394 155.86 103.259 149.246 97.346 158.208 100.489 156.819 102.943 155.198 104.728 161.911 107.499 158.109 107.927 157.017 107.276 154.438 108.8 154.934 109.6 155.198 110.307 155.132 110.418 153.611 110.586 151.329 109.117 152.751 108.726 151.561 112.947 145.542 111.906 159.861 115.866 159.266 115.68 157.513 114.528 155 116.889 155.331 119.232 152.817 119.306 150.734 121.389 156.389 121.463 157.612 121.835 158.472 122.43 159.068 128.938 152.917 135.409 161.25 142.233 158.472 146.417 155.43 150.433 160.126 154.672 158.968 156.16 158.042 157.666 156.389 159.098 159.167 176.632 159.762 195.319 157.282 211.943 159.266 256.364 155.562 303.836 160.787 350.674 155.893 361.719 154.008 373.192 151.329 383.958 149.18 383.958 149.18 392.679 143.294 392.679 116.838S394.538 93.69 394.817 72.625C395.096 51.56 396.398 50.7 394.538 34.165Z" opacity="1" fill="#ffffff" data-fill-palette-color="tertiary"></path><g transform="matrix(1,0,0,1,55.76832,26.230666666666668)"><svg width="283.98335999999995" viewBox="-0.35 -21.8 104.99 39.5" height="106.83183542857141" data-palette-color="#102e44"><path d="M15.9-14.2L15.9-14.2Q17.05-14.2 17.05-12.98 17.05-11.75 15.9-9.6 14.75-7.45 14.2-6.1L14.2-6.1Q13.25-3.8 13.25-2.43 13.25-1.05 13.65-0.6L13.65-0.6Q14.4 0.2 15.7-0.53 17-1.25 19.33-3.33 21.65-5.4 23.05-7.4L23.05-7.4Q23.25-7.65 23.53-7.53 23.8-7.4 23.8-7.28 23.8-7.15 23.7-7L23.7-7Q22.95-5.65 21-3.55 19.05-1.45 17.25-0.18 15.45 1.1 13.7 1.1L13.7 1.1Q12 1.05 11.3 0.33 10.6-0.4 10.6-1.5 10.6-2.6 10.8-3.63 11-4.65 11.55-6L11.55-6Q12.45-8.15 13.13-9.35 13.8-10.55 13.8-10.93 13.8-11.3 13.4-11.3L13.4-11.3Q12.6-11.3 10.35-9.35L10.35-9.35Q8.8-7.9 5.78-3.88 2.75 0.15 2.35 0.4L2.35 0.4Q0.55 1.3 0.1 1.3-0.35 1.3-0.35 1.15-0.35 1-0.25 0.73-0.15 0.45 0.73-2 1.6-4.45 2.63-7.38 3.65-10.3 3.88-10.9 4.1-11.5 4.17-11.93 4.25-12.35 4.35-12.65 4.45-12.95 4.73-13.33 5-13.7 5.45-13.73 5.9-13.75 6.6-13.63 7.3-13.5 7.3-13L7.3-13Q7.3-12.65 6.75-11.48 6.2-10.3 3.6-3.4L3.6-3.4Q5.4-5.6 8.15-8.47 10.9-11.35 12.8-12.85L12.8-12.85Q14.7-14.2 15.9-14.2ZM34-14.55L34-14.55Q36.7-14.55 36.7-11.95L36.7-11.95Q36.7-10.6 35.95-9.75L35.95-9.75Q34.7-7.9 31.9-6.53 29.1-5.15 27.15-5L27.15-5Q26.45-4.95 26.4-5.4L26.4-5.4Q26.35-5.6 26.52-5.65 26.7-5.7 26.8-5.7L26.8-5.7Q27.95-5.8 29.75-6.8L29.75-6.8Q33.1-8.6 34.65-10.5L34.65-10.5Q35.3-11.4 35.3-12.23 35.3-13.05 34.5-13.05L34.5-13.05Q33.85-13.05 32.75-12.5L32.75-12.5Q30.4-11.4 27.8-8.68 25.2-5.95 24.4-3.35L24.4-3.35Q24.15-2.55 24.15-1.78 24.15-1 24.8-0.3 25.45 0.4 26.8 0.4L26.8 0.4Q28.3 0.4 30.25-0.4L30.25-0.4Q35.9-2.7 38.95-7.35L38.95-7.35Q39.25-7.75 39.5-7.5L39.5-7.5Q39.7-7.4 39.7-7.25 39.7-7.1 39.55-6.9L39.55-6.9Q38.05-4.4 35.75-2.45L35.75-2.45Q31.3 1.35 27.1 1.35L27.1 1.35Q23.5 1.35 22.05-0.8L22.05-0.8Q21.5-1.65 21.5-2.85 21.5-4.05 22.15-5.7L22.15-5.7Q23.4-8.55 27.5-11.55 31.6-14.55 34-14.55ZM54.05-10.4L54.05-10.4Q54.05-8.2 52.25-5.93 50.45-3.65 48-1.95L48-1.95Q45.75-0.5 43.42 0.3 41.1 1.1 39.92 1.1 38.75 1.1 38 0.85L38 0.85Q36.9 3.4 34.95 9.4L34.95 9.4Q34.75 10.05 34.72 11.03 34.7 12 34.12 13.68 33.55 15.35 33 16.35L33 16.35Q32.75 16.95 31.55 17.32 30.35 17.7 29.85 17.7 29.35 17.7 29.35 17.2L29.35 17.2Q29.35 17 29.5 16.65L29.5 16.65Q31.8 11.95 35.3 2.83 38.8-6.3 39.15-7.3 39.5-8.3 40.15-10.2L40.15-10.2Q41.25-13.4 41.35-15L41.35-15Q41.35-15.6 42.95-15.6 44.55-15.6 44.55-14.45L44.55-14.45Q44.55-13.6 43.57-12.08 42.6-10.55 40.7-6L40.7-6Q43.6-10.4 45.4-11.75L45.4-11.75Q47.8-13.7 50.05-13.7L50.05-13.7Q50.95-13.7 51.85-13.4L51.85-13.4Q53.8-12.7 54-11.15L54-11.15Q54.05-10.75 54.05-10.4ZM51.6-11.1L51.6-11.1Q51.6-12.85 50.25-12.85L50.25-12.85Q49.45-12.85 47.65-11.9 45.85-10.95 44.05-9.05 42.25-7.15 41.27-5.48 40.3-3.8 39.45-2.02 38.6-0.25 38.45 0.05L38.45 0.05Q41.5 0.05 45.15-2.6 48.8-5.25 50.6-8.35L50.6-8.35Q51.6-9.9 51.6-11.1ZM64.24-13.95L64.89-14Q68.74-14.35 69.57-14.35 70.39-14.35 70.39-14.1L70.39-14.1Q70.39-13.8 69.22-13.48 68.04-13.15 63.49-12.65L63.49-12.65Q63.24-12.2 62.89-11.6L62.89-11.6Q62.14-10.4 62.09-10.15L62.09-10.15Q59.24-4.45 59.09-2.9L59.09-2.9Q59.04-2.45 59.04-1.75 59.04-1.05 59.44-0.6L59.44-0.6Q60.14 0.2 61.44-0.5 62.74-1.2 65.07-3.3 67.39-5.4 68.84-7.4L68.84-7.4Q69.04-7.65 69.34-7.5L69.34-7.5Q70.09-7.15 66.74-3.55L66.74-3.55Q63.54-0.1 61.39 0.7L61.39 0.7Q60.14 1.15 59.29 1.15L59.29 1.15Q57.29 1.15 56.64-0.75L56.64-0.75Q56.54-1.1 56.54-1.6L56.54-1.6Q56.54-3.35 58.14-6.9L58.14-6.9Q57.89-6.35 56.19-4.4L56.19-4.4Q55.74-3.9 55.49-4.4L55.49-4.4Q55.44-4.5 55.44-4.67 55.44-4.85 55.64-5.1L55.64-5.1Q58.09-8.15 59.49-10.25L59.49-10.25Q59.49-10.3 60.59-12.35L60.59-12.35Q60.09-12.25 59.57-12.25 59.04-12.25 58.79-12.58 58.54-12.9 58.74-13.35L58.74-13.35Q59.09-14.15 61.39-14.25L61.39-14.25Q61.44-14.35 61.59-14.35L61.59-14.35 64.09-19Q64.29-19.4 64.54-19.83 64.79-20.25 64.92-20.48 65.04-20.7 65.19-20.95 65.34-21.2 65.44-21.3 65.54-21.4 65.64-21.5L65.64-21.5Q65.84-21.8 66.82-21.8 67.79-21.8 68.14-21.25L68.14-21.25Q68.29-21.05 68.29-20.58 68.29-20.1 67.94-19.53 67.59-18.95 67.19-18.7 66.79-18.45 66.64-18.15L66.64-18.15 64.24-13.95ZM78.54-5.5L78.54-5.5Q79.44-7.35 79.44-8.35 79.44-9.35 79.22-9.93 78.99-10.5 79.42-10.9 79.84-11.3 80.49-11.2L80.49-11.2Q81.49-10.95 81.49-8.95 81.49-6.95 79.14-3.7L79.14-3.7Q79.19-2.35 80.54-2.35 81.89-2.35 84.64-5.25L84.64-5.25Q85.94-6.75 86.27-7.2 86.59-7.65 86.84-7.53 87.09-7.4 87.09-7.3L87.09-7.3Q87.09-6.8 85.29-4.7L85.29-4.7Q82.44-1.2 80.24-1.2L80.24-1.2Q78.79-1.2 78.19-2.45L78.19-2.45Q77.19-1.4 76.24-0.5L76.24-0.5Q74.29 1.15 71.89 1.15L71.89 1.15Q70.54 1.15 69.64 0.5L69.64 0.5Q67.89-0.55 67.89-3.25L67.89-3.25Q67.89-6.2 69.89-9.25L69.89-9.25Q71.04-11.05 72.59-12.4L72.59-12.4Q75.04-14.55 77.24-14.55L77.24-14.55Q77.79-14.55 78.29-14.4L78.29-14.4Q79.79-13.9 79.79-12.5L79.79-12.5Q79.79-11.35 79.19-11.35L79.19-11.35Q78.94-11.45 78.94-12.1L78.94-12.1Q78.94-13 77.94-13L77.94-13Q76.19-13 73.44-9.8 70.69-6.6 70.14-3.35L70.14-3.35Q70.04-2.8 70.04-2.13 70.04-1.45 70.49-0.58 70.94 0.3 72.17 0.3 73.39 0.3 74.84-0.8 76.29-1.9 77.44-3.6L77.44-3.6 77.29-3.9Q77.09-4.7 77.49-5.2 77.89-5.7 78.54-5.5ZM96.09-5.5L96.09-5.5Q96.99-7.35 96.99-8.35 96.99-9.35 96.76-9.93 96.54-10.5 96.96-10.9 97.39-11.3 98.04-11.2L98.04-11.2Q99.04-10.95 99.04-8.95 99.04-6.95 96.69-3.7L96.69-3.7Q96.74-2.35 98.09-2.35 99.44-2.35 102.19-5.25L102.19-5.25Q103.49-6.75 103.81-7.2 104.14-7.65 104.39-7.53 104.64-7.4 104.64-7.3L104.64-7.3Q104.64-6.8 102.84-4.7L102.84-4.7Q99.99-1.2 97.79-1.2L97.79-1.2Q96.34-1.2 95.74-2.45L95.74-2.45Q94.74-1.4 93.79-0.5L93.79-0.5Q91.84 1.15 89.44 1.15L89.44 1.15Q88.09 1.15 87.19 0.5L87.19 0.5Q85.44-0.55 85.44-3.25L85.44-3.25Q85.44-6.2 87.44-9.25L87.44-9.25Q88.59-11.05 90.14-12.4L90.14-12.4Q92.59-14.55 94.79-14.55L94.79-14.55Q95.34-14.55 95.84-14.4L95.84-14.4Q97.34-13.9 97.34-12.5L97.34-12.5Q97.34-11.35 96.74-11.35L96.74-11.35Q96.49-11.45 96.49-12.1L96.49-12.1Q96.49-13 95.49-13L95.49-13Q93.74-13 90.99-9.8 88.24-6.6 87.69-3.35L87.69-3.35Q87.59-2.8 87.59-2.13 87.59-1.45 88.04-0.58 88.49 0.3 89.71 0.3 90.94 0.3 92.39-0.8 93.84-1.9 94.99-3.6L94.99-3.6 94.84-3.9Q94.64-4.7 95.04-5.2 95.44-5.7 96.09-5.5Z" opacity="1" transform="matrix(1,0,0,1,0,0)" fill="#102e44" class="wordmark-text-0" data-fill-palette-color="quaternary" id="text-0"></path></svg></g></svg></g></svg></g></svg></g><g></g></svg></g><defs></defs></svg><rect width="395.52" height="159.29316876190475" fill="none" stroke="none" visibility="hidden"></rect></g></svg></g></svg>